<svg xmlns="http://www.w3.org/2000/svg" viewBox="0 0 256 256" width="256" height="256">
<defs><radialGradient id="estrella-b" ><stop offset="0" stop-color="#3456CC"/><stop offset="1" stop-color="#0A1646"/></radialGradient><radialGradient id="estrella-gl" cx="128" cy="134" r="120" gradientUnits="userSpaceOnUse"><stop offset="0" stop-color="#FFE27A" stop-opacity="0.75"/><stop offset="0.5" stop-color="#FFD54A" stop-opacity="0.3"/><stop offset="1" stop-color="#FFD54A" stop-opacity="0"/></radialGradient><radialGradient id="estrella-sg" cx="128" cy="134" r="104" gradientUnits="userSpaceOnUse"><stop offset="0" stop-color="#FFE070"/><stop offset="0.55" stop-color="#FFC61F"/><stop offset="1" stop-color="#F08C0B"/></radialGradient><radialGradient id="estrella-vg" cx="128" cy="128" r="128" gradientUnits="userSpaceOnUse"><stop offset="0.74" stop-color="#000" stop-opacity="0"/><stop offset="1" stop-color="#000" stop-opacity="0.3"/></radialGradient></defs>
<rect width="256" height="256" fill="url(#estrella-b)"/>
<g fill="#FFE27A" opacity=".18"><polygon points="128,134 115.8,-5.5 140.2,-5.5"/><polygon points="128,134 170.1,0.5 192.6,9.8"/><polygon points="128,134 218,26.8 235.2,44"/><polygon points="128,134 252.2,69.4 261.5,91.9"/><polygon points="128,134 267.5,121.8 267.5,146.2"/><polygon points="128,134 261.5,176.1 252.2,198.6"/><polygon points="128,134 235.2,224 218,241.2"/><polygon points="128,134 192.6,258.2 170.1,267.5"/><polygon points="128,134 140.2,273.5 115.8,273.5"/><polygon points="128,134 85.9,267.5 63.4,258.2"/><polygon points="128,134 38,241.2 20.8,224"/><polygon points="128,134 3.8,198.6 -5.5,176.1"/><polygon points="128,134 -11.5,146.2 -11.5,121.8"/><polygon points="128,134 -5.5,91.9 3.8,69.4"/><polygon points="128,134 20.8,44 38,26.8"/><polygon points="128,134 63.4,9.8 85.9,0.5"/></g>
<circle cx="128" cy="134" r="120" fill="url(#estrella-gl)"/>
<polygon points="128,30 153.9,98.4 226.9,101.9 169.8,147.6 189.1,218.1 128,178 66.9,218.1 86.2,147.6 29.1,101.9 102.1,98.4" fill="url(#estrella-sg)" stroke="#B45309" stroke-width="6" stroke-linejoin="round"/>
<g fill="#FFFFFF" opacity=".28"><polygon points="128,134 128,30 153.9,98.4"/><polygon points="128,134 226.9,101.9 169.8,147.6"/><polygon points="128,134 189.1,218.1 128,178"/><polygon points="128,134 66.9,218.1 86.2,147.6"/><polygon points="128,134 29.1,101.9 102.1,98.4"/></g>
<g fill="#B45309" opacity=".16"><polygon points="128,134 102.1,98.4 128,30"/><polygon points="128,134 153.9,98.4 226.9,101.9"/><polygon points="128,134 169.8,147.6 189.1,218.1"/><polygon points="128,134 128,178 66.9,218.1"/><polygon points="128,134 86.2,147.6 29.1,101.9"/></g>
<polygon points="128,30 153.9,98.4 226.9,101.9 169.8,147.6 189.1,218.1 128,178 66.9,218.1 86.2,147.6 29.1,101.9 102.1,98.4" fill="none" stroke="#B45309" stroke-width="6" stroke-linejoin="round"/>
<g fill="#FFFFFF"><polygon points="44,50 45.8,58.2 54,60 45.8,61.8 44,70 42.2,61.8 34,60 42.2,58.2"/><polygon points="214,62 215.4,68.6 222,70 215.4,71.4 214,78 212.6,71.4 206,70 212.6,68.6"/><polygon points="210,199 211.4,204.6 217,206 211.4,207.4 210,213 208.6,207.4 203,206 208.6,204.6"/><polygon points="48,193 49.4,198.6 55,200 49.4,201.4 48,207 46.6,201.4 41,200 46.6,198.6"/></g>
<circle cx="128" cy="128" r="128" fill="url(#estrella-vg)"/>
</svg>
